<svg width="190" height="38" viewBox="0 0 190 38" fill="none" xmlns="http://www.w3.org/2000/svg">
<g clip-path="url(#clip0_1_1008)">
<path fill-rule="evenodd" clip-rule="evenodd" d="M26.2354 21.8647C26.2354 21.8647 20.6112 7.07761 20.7587 7.4357H16.5142L11.2692 21.8542L6.82465 7.4357H0.35791L8.1833 29.964H12.6911L18.3258 14.7871C18.3258 14.7871 21.8751 23.9922 24.2132 29.964H28.5103L36.1251 7.4357H30.68C30.7853 7.01441 26.2354 21.8647 26.2354 21.8647ZM55.0198 8.74169C54.114 8.04656 53.0713 7.55155 51.9128 7.25665C50.7542 6.95122 49.5746 6.8143 48.3845 6.8143C44.7299 6.8143 41.8967 7.81486 39.8851 9.81596C37.8734 11.8065 36.8623 14.745 36.8623 18.6419C36.8623 22.2966 37.7576 25.1718 39.5375 27.2677C41.3174 29.3636 44.1295 30.4169 47.9527 30.4169C49.8485 30.4169 51.6284 30.1535 53.282 29.6269C54.9355 29.1003 56.252 28.4684 57.221 27.7417L55.1777 24.0028C54.609 24.403 53.798 24.7927 52.7343 25.1718C51.6705 25.551 50.4699 25.7511 49.1428 25.7511C46.9311 25.7511 45.3407 25.2877 44.3612 24.3714C43.3817 23.4551 42.8235 22.0227 42.6866 20.0953H57.5685C57.7371 19.3265 57.8634 18.5998 57.9372 17.8836C58.0004 17.1779 58.0425 16.5249 58.0425 15.9246C58.0425 14.1973 57.7687 12.7439 57.2104 11.5643C56.6628 10.3636 55.9255 9.43681 55.0198 8.74169ZM52.5131 16.5355H42.9078C43.0447 15.061 43.5397 13.8498 44.4034 12.9019C45.2459 11.954 46.5519 11.48 48.3108 11.48C49.8695 11.48 50.986 11.9329 51.6705 12.8387C52.3446 13.7445 52.629 14.9767 52.5131 16.5355ZM80.6761 9.71064C79.1595 7.82539 76.9582 6.88803 74.0619 6.88803C72.7875 6.88803 71.6184 7.1092 70.5547 7.54102C69.4909 7.98337 68.6168 8.5837 67.9427 9.35255H67.4372V0H61.4865V28.8686C62.3923 29.2373 63.6877 29.5743 65.3623 29.8692C67.0369 30.1641 68.9327 30.3115 71.0602 30.3115C72.9034 30.3115 74.5569 30.0377 76.0314 29.4795C77.5059 28.9213 78.7487 28.1208 79.7703 27.0782C80.7919 26.0355 81.5713 24.74 82.1295 23.2129C82.6772 21.6857 82.9616 19.9374 82.9616 17.9784C82.951 14.3553 82.1822 11.5959 80.6761 9.71064ZM71.3025 25.3404C70.5652 25.3404 69.8806 25.3088 69.2382 25.235C68.5957 25.1613 67.9954 24.9823 67.4266 24.6979V15.3875C67.8269 14.2184 68.4167 13.3442 69.196 12.7439C69.9754 12.1541 71.0076 11.8592 72.282 11.8592C73.7881 11.8592 74.9255 12.3858 75.6838 13.4496C76.4527 14.5133 76.8318 16.0721 76.8318 18.1048C76.8213 22.9285 74.9782 25.3404 71.3025 25.3404Z" fill="#0E0E11"/>
<path fill-rule="evenodd" clip-rule="evenodd" d="M105.88 26.1313C105.69 25.1202 105.564 24.0775 105.501 23.0032C105.416 21.4129 105.395 19.9173 105.437 18.4955C105.48 17.0736 105.458 15.6413 105.385 14.1984C105.322 13.0082 105.121 11.934 104.805 10.9755C104.49 10.0171 103.994 9.19559 103.342 8.5426C102.689 7.87907 101.814 7.39459 100.73 7.08916C99.6447 6.78373 98.3282 6.65734 96.7694 6.7416C94.7894 6.84692 92.8831 7.13129 91.04 7.5947C89.2074 8.05812 87.6697 8.60579 86.4269 9.23772L88.2279 13.6507C89.1968 13.1136 90.3132 12.6501 91.5876 12.2604C92.862 11.8708 94.168 11.6391 95.5267 11.5653C97.0012 11.4916 98.0122 11.6917 98.581 12.1762C99.1497 12.6607 99.4551 13.4295 99.5078 14.5143C99.5289 14.9356 99.5183 15.4517 99.4657 16.052C99.1497 16.0099 98.602 15.9467 97.8016 15.8624C97.0011 15.7782 96.2112 15.7571 95.4108 15.7993C91.9878 15.9783 89.4707 16.7577 87.8487 18.1269C86.2268 19.5066 85.4895 21.4445 85.6264 23.9722C85.6791 24.899 85.8897 25.7627 86.29 26.5315C86.6796 27.3004 87.2168 27.9639 87.8803 28.5116C88.5544 29.0592 89.3337 29.47 90.2395 29.7333C91.1453 29.9966 92.1353 30.1019 93.2201 30.0493C95 29.9545 96.4429 29.5226 97.5383 28.7538C98.6336 27.9955 99.5183 27.0897 100.213 26.0576L100.719 26.026L101.867 29.2909L106.701 29.0382C106.354 28.1008 106.08 27.1424 105.88 26.1313ZM98.2018 24.067C97.4435 24.7305 96.4008 25.0991 95.0632 25.1623C94.0732 25.215 93.2728 25.0044 92.6724 24.5199C92.0616 24.0459 91.7351 23.2876 91.6824 22.266C91.6403 21.4445 91.9668 20.7388 92.683 20.149C93.3886 19.5592 94.505 19.2222 96.0322 19.1485C96.3166 19.1379 96.6325 19.1379 96.9906 19.1379C97.3487 19.1485 97.6963 19.1695 98.0544 19.2117C98.4125 19.2433 98.739 19.2854 99.0444 19.3275C99.3393 19.3696 99.571 19.4223 99.7079 19.4644L99.8448 22.0132C99.5078 22.7189 98.9601 23.4035 98.2018 24.067Z" fill="#0088EE"/>
<path fill-rule="evenodd" clip-rule="evenodd" d="M127.565 21.4209C127.397 20.2097 127.018 19.2407 126.438 18.5035C125.87 17.7662 125.196 17.1975 124.427 16.7972C123.647 16.3865 122.815 16.1021 121.92 15.9231C121.025 15.7546 120.161 15.6071 119.35 15.4913C118.244 15.3333 117.286 15.1437 116.506 14.9225C115.717 14.7013 115.274 14.2695 115.19 13.6271C115.085 12.9004 115.253 12.3527 115.685 11.9946C116.117 11.6365 116.833 11.3837 117.812 11.2468C118.992 11.0783 120.172 11.0678 121.351 11.1941C122.531 11.3311 123.5 11.489 124.269 11.6681L124.858 7.03394C123.9 6.77064 122.668 6.59159 121.162 6.50734C119.645 6.42308 118.044 6.4968 116.359 6.72851C113.779 7.0866 111.883 7.95024 110.672 9.30889C109.46 10.6675 109.008 12.458 109.324 14.6698C109.503 15.9652 109.882 16.9974 110.472 17.7662C111.051 18.5456 111.735 19.1459 112.525 19.5567C113.315 19.978 114.158 20.2729 115.053 20.4624C115.948 20.652 116.812 20.7995 117.633 20.9153C118.739 21.0733 119.677 21.2629 120.456 21.4841C121.235 21.7052 121.667 22.1476 121.762 22.8322C121.878 23.6747 121.688 24.2856 121.183 24.6753C120.677 25.065 119.929 25.3283 118.96 25.4652C118.318 25.5495 117.665 25.5916 117.023 25.5705C116.37 25.5389 115.738 25.4863 115.116 25.402C114.484 25.3178 113.905 25.2124 113.357 25.0966C112.81 24.9702 112.325 24.8438 111.904 24.6964L111.082 29.5306C112.051 29.9624 113.284 30.2257 114.758 30.3205C116.233 30.4153 117.791 30.3416 119.445 30.1099C122.499 29.6781 124.711 28.7196 126.049 27.203C127.397 25.7074 127.892 23.7801 127.565 21.4209Z" fill="#22CC22"/>
<path fill-rule="evenodd" clip-rule="evenodd" d="M145.911 7.56965L141.488 19.7237L140.498 23.252L140.076 23.231L139.329 19.6184L135.432 7.02198L128.259 6.64282L137.264 29.5924C137.022 30.3191 136.759 30.8878 136.474 31.3196C136.179 31.7409 135.874 32.0674 135.548 32.2886C135.221 32.5098 134.873 32.6572 134.505 32.7204C134.136 32.7836 133.747 32.8047 133.357 32.7836C132.904 32.7625 132.472 32.6678 132.051 32.5098L130.576 37.0281C131.04 37.3019 131.609 37.5336 132.272 37.6916C132.925 37.8601 133.631 37.9549 134.357 37.997C135.463 38.0497 136.432 37.8601 137.264 37.4072C138.096 36.9543 138.865 36.2803 139.56 35.385C140.255 34.4793 140.919 33.3839 141.54 32.078C142.162 30.772 142.825 29.308 143.541 27.665L151.988 7.88562L145.911 7.56965Z" fill="#EE6622"/>
<path fill-rule="evenodd" clip-rule="evenodd" d="M167.925 18.3496C167.272 17.7703 166.535 17.2858 165.703 16.8961C164.871 16.5064 164.07 16.1589 163.312 15.8534C162.28 15.4322 161.395 15.0214 160.689 14.6106C159.973 14.2104 159.657 13.6838 159.72 13.0308C159.794 12.2936 160.089 11.8091 160.595 11.5669C161.1 11.3246 161.848 11.2509 162.838 11.3562C164.018 11.4826 165.166 11.7564 166.282 12.1672C167.388 12.5885 168.294 12.9782 168.999 13.3257L170.695 8.97594C169.842 8.49146 168.683 8.01752 167.23 7.56463C165.776 7.11175 164.207 6.79579 162.522 6.61674C159.931 6.3429 157.888 6.72206 156.382 7.74368C154.876 8.77583 154.012 10.3978 153.77 12.6201C153.633 13.9155 153.759 15.0109 154.138 15.9061C154.518 16.8013 155.034 17.5491 155.697 18.1389C156.361 18.7392 157.109 19.2343 157.941 19.6345C158.762 20.0347 159.562 20.3928 160.331 20.6982C161.374 21.1195 162.238 21.5303 162.943 21.9305C163.638 22.3307 163.954 22.8678 163.881 23.5419C163.796 24.3845 163.459 24.9427 162.87 25.1849C162.29 25.4377 161.5 25.5114 160.521 25.4061C159.868 25.3429 159.236 25.2165 158.615 25.0375C157.993 24.8584 157.393 24.6583 156.793 24.4266C156.203 24.1949 155.666 23.9527 155.16 23.6999C154.655 23.4471 154.223 23.2049 153.844 22.9626L151.874 27.4599C152.717 28.1129 153.844 28.6711 155.255 29.1134C156.656 29.5558 158.193 29.8717 159.857 30.0402C162.933 30.3562 165.303 29.956 166.967 28.8185C168.641 27.681 169.6 25.9327 169.852 23.563C169.979 22.3518 169.852 21.3196 169.473 20.4665C169.094 19.6555 168.578 18.9394 167.925 18.3496Z" fill="#FFCC00"/>
<path fill-rule="evenodd" clip-rule="evenodd" d="M183.017 12.8394L188.957 13.6715L189.652 8.74242L183.723 7.91038L184.365 3.31836L178.256 4.04508L177.835 7.07834L174.475 6.60439L173.78 11.5334L177.151 12.0074L175.602 23.0345C175.265 25.4148 175.529 27.2263 176.392 28.4481C177.256 29.6698 178.773 30.4387 180.963 30.7441C182.059 30.9021 183.207 30.9126 184.407 30.7967C185.608 30.6809 186.693 30.4913 187.641 30.228L187.04 25.636C186.503 25.794 186.008 25.8888 185.545 25.9204C185.081 25.9625 184.523 25.9309 183.881 25.8361C182.848 25.6887 182.206 25.2042 181.964 24.3827C181.722 23.5612 181.722 22.2657 181.974 20.4963L183.017 12.8394Z" fill="#55DDDD"/>
</g>
<defs>
<clipPath id="clip0_1_1008">
<rect width="190" height="38" fill="white"/>
</clipPath>
</defs>
</svg>
