<svg width="41" height="40" viewBox="0 0 41 40" fill="none" xmlns="http://www.w3.org/2000/svg">
<path d="M11.2047 8.64988C11.897 7.93284 13.0271 7.95942 13.6873 8.70829L18.8724 14.5901C19.3655 15.1494 19.3466 16.0115 18.8295 16.547C18.3124 17.0826 17.4801 17.1022 16.94 16.5915L11.2611 11.2211C10.538 10.5374 10.5124 9.36692 11.2047 8.64988Z" fill="#0088EE"/>
<path d="M21.2784 4C22.2575 4 23.0384 4.84645 22.994 5.85945L22.6448 13.8159C22.6116 14.5725 22.0097 15.1682 21.2784 15.1682C20.5471 15.1682 19.9452 14.5725 19.912 13.8159L19.5628 5.85945C19.5184 4.84645 20.2993 4 21.2784 4Z" fill="#22CC22"/>
<path d="M31.5733 8.19114C32.2656 8.90818 32.2399 10.0787 31.5169 10.7624L25.8379 16.1327C25.2979 16.6434 24.4656 16.6238 23.9485 16.0883C23.4314 15.5527 23.4125 14.6906 23.9055 14.1313L29.0907 8.24955C29.7509 7.50068 30.881 7.4741 31.5733 8.19114Z" fill="#EE6622"/>
<path d="M35.6601 18.6252C35.6601 19.6392 34.8428 20.448 33.8648 20.402L26.1827 20.0404C25.4522 20.006 24.877 19.3825 24.877 18.6252C24.877 17.8678 25.4521 17.2444 26.1827 17.21L33.8648 16.8483C34.8428 16.8023 35.6601 17.6111 35.6601 18.6252Z" fill="#FFCC00"/>
<path d="M23.0627 20.9315C23.5798 20.396 24.4121 20.3764 24.9522 20.8871L30.6312 26.2574C31.3542 26.9411 31.3799 28.1117 30.6876 28.8287C29.9953 29.5457 28.8651 29.5191 28.2049 28.7703L23.0198 22.8885C22.5268 22.3292 22.5456 21.4671 23.0627 20.9315Z" fill="#55DDDD"/>
<path d="M22.157 17.7125C22.6714 18.2453 22.6826 19.1055 22.1823 19.6525L7.79363 35.383C7.05491 36.1906 5.81844 36.2079 5.05893 35.4212C4.29941 34.6346 4.31612 33.354 5.09588 32.5889L20.2839 17.6863C20.8121 17.1681 21.6426 17.1797 22.157 17.7125Z" fill="#1C1C1E"/>
</svg>
